# xmcd
#
# Track frame offsets: 
#        150
#        16778
#        34778
#        51394
#        69394
#        85974
#
# Disc length: 1366 seconds
#
# Revision: 1
# Processed by: cddbd v1.5.1PL0 Copyright (c) Steve Scherf et al.
# Submitted via: ExactAudioCopy v0.90b4
#
DISCID=45055406
DTITLE=ÃÏÍ¥Î­ - ÐÄ¾­
DYEAR=2003
DGENRE=New Age
TTITLE0=ÐÄ¾­(ÑÝ³ª°æ)
TTITLE1=¶þºúÑÝ×à°æ
TTITLE2=ÅýÅÃÑÝ×à°æ
TTITLE3=Èø¿ËË¹·çÑÝ×à°æ
TTITLE4=°é×à°æ
TTITLE5=ÐÄ¾­(ÑÝ³ª°æ)
EXTD=YEAR: 2003
EXTT0=
EXTT1=
EXTT2=
EXTT3=
EXTT4=
EXTT5=
PLAYORDER=
